<svg preserveAspectRatio="none" width="100%" height="100%" overflow="visible" style="display: block;" viewBox="0 0 148.664 148.664" fill="none" xmlns="http://www.w3.org/2000/svg">
<g id="material-symbols-light:article-outline-rounded">
<path id="Vector" d="M34.7874 123.887C31.9339 123.887 29.5532 122.933 27.6454 121.025C25.7375 119.117 24.7815 116.734 24.7774 113.877V34.7874C24.7774 31.9339 25.7334 29.5532 27.6454 27.6454C29.5573 25.7375 31.938 24.7815 34.7874 24.7774H113.883C116.732 24.7774 119.113 25.7334 121.025 27.6454C122.937 29.5573 123.891 31.938 123.887 34.7874V113.883C123.887 116.732 122.933 119.113 121.025 121.025C119.117 122.937 116.734 123.891 113.877 123.887H34.7874ZM34.7874 117.693H113.883C114.833 117.693 115.706 117.296 116.503 116.503C117.3 115.71 117.697 114.835 117.693 113.877V34.7874C117.693 33.8335 117.296 32.958 116.503 32.161C115.71 31.364 114.835 30.9676 113.877 30.9717H34.7874C33.8335 30.9717 32.958 31.3682 32.161 32.161C31.364 32.9539 30.9676 33.8294 30.9717 34.7874V113.883C30.9717 114.833 31.3682 115.706 32.161 116.503C32.9539 117.3 33.8273 117.697 34.7812 117.693M49.5548 102.207H80.5265C81.4102 102.207 82.1473 101.911 82.7379 101.321C83.3284 100.73 83.6237 99.9932 83.6237 99.1095C83.6237 98.2258 83.3284 97.4887 82.7379 96.8981C82.1473 96.3076 81.4102 96.0123 80.5265 96.0123H49.5548C48.6752 96.0123 47.938 96.3076 47.3434 96.8981C46.7487 97.4887 46.4535 98.2258 46.4576 99.1095C46.4617 99.9932 46.757 100.73 47.3434 101.321C47.9298 101.911 48.6669 102.207 49.5548 102.207ZM49.5548 77.4293H99.1095C99.9932 77.4293 100.73 77.134 101.321 76.5435C101.911 75.953 102.207 75.2159 102.207 74.3321C102.207 73.4484 101.911 72.7113 101.321 72.1208C100.73 71.5302 99.9932 71.235 99.1095 71.235H49.5548C48.6752 71.235 47.938 71.5302 47.3434 72.1208C46.7487 72.7113 46.4535 73.4484 46.4576 74.3321C46.4617 75.2159 46.757 75.953 47.3434 76.5435C47.9298 77.134 48.6669 77.4293 49.5548 77.4293ZM49.5548 52.6519H99.1095C99.9932 52.6519 100.73 52.3567 101.321 51.7661C101.911 51.1756 102.207 50.4385 102.207 49.5548C102.207 48.671 101.911 47.9339 101.321 47.3434C100.73 46.7528 99.9932 46.4576 99.1095 46.4576H49.5548C48.6752 46.4576 47.938 46.7528 47.3434 47.3434C46.7487 47.9339 46.4535 48.671 46.4576 49.5548C46.4617 50.4385 46.757 51.1756 47.3434 51.7661C47.9298 52.3567 48.6669 52.6519 49.5548 52.6519Z" fill="var(--fill-0, #D7F3FF)"/>
</g>
</svg>
