<svg preserveAspectRatio="none" width="100%" height="100%" overflow="visible" style="display: block;" viewBox="0 0 160.552 161.998" fill="none" xmlns="http://www.w3.org/2000/svg">
<g id="Group">
<path id="Vector" d="M4.58028 70.7994C3.80657 77.0658 3.80657 83.4036 4.58028 89.67M34.2544 19.3879C39.2957 15.5822 44.7861 12.4113 50.6019 9.94667M10.0057 50.5546C12.4667 44.7395 15.6336 39.2491 19.4351 34.2072M56.7499 101.895V60.1025C56.7499 55.2693 62.3649 52.2131 66.9374 54.5586L107.699 75.4667C108.754 75.9568 109.646 76.7378 110.271 77.7179C110.896 78.698 111.228 79.8363 111.228 80.9988C111.228 82.1613 110.896 83.2996 110.271 84.2796C109.646 85.2597 108.754 86.0408 107.699 86.5308L66.9493 107.439C62.3649 109.784 56.7499 106.728 56.7499 101.895Z" stroke="var(--stroke-0, #D7F3FF)" stroke-width="8" stroke-linecap="round" stroke-linejoin="round"/>
<path id="Vector_2" d="M80.4182 4C122.471 4 156.552 38.4718 156.552 80.9988C156.552 123.526 122.471 157.998 80.4182 157.998C51.4429 157.998 26.2466 141.626 13.3818 117.532" stroke="var(--stroke-0, #D7F3FF)" stroke-width="8" stroke-linecap="round" stroke-linejoin="round"/>
</g>
</svg>
