<svg preserveAspectRatio="none" width="100%" height="100%" overflow="visible" style="display: block;" viewBox="0 0 96.6991 96.6991" fill="none" xmlns="http://www.w3.org/2000/svg">
<g id="material-symbols-light:article-outline-rounded">
<path id="Vector" d="M22.6276 80.5826C20.7715 80.5826 19.223 79.9621 17.982 78.7211C16.741 77.4802 16.1192 75.9303 16.1165 74.0715V22.6276C16.1165 20.7715 16.7383 19.223 17.982 17.982C19.2257 16.741 20.7742 16.1192 22.6276 16.1165H74.0755C75.9289 16.1165 77.4775 16.7383 78.7211 17.982C79.9648 19.2257 80.5853 20.7742 80.5826 22.6276V74.0755C80.5826 75.9289 79.9621 77.4775 78.7211 78.7211C77.4802 79.9648 75.9303 80.5853 74.0715 80.5826H22.6276ZM22.6276 76.5535H74.0755C74.6933 76.5535 75.2614 76.2956 75.7799 75.7799C76.2983 75.2641 76.5561 74.6947 76.5535 74.0715V22.6276C76.5535 22.0071 76.2956 21.4377 75.7799 20.9192C75.2641 20.4008 74.6947 20.143 74.0715 20.1456H22.6276C22.0071 20.1456 21.4377 20.4035 20.9192 20.9192C20.4008 21.435 20.143 22.0044 20.1456 22.6276V74.0755C20.1456 74.6933 20.4035 75.2614 20.9192 75.7799C21.435 76.2983 22.0031 76.5561 22.6236 76.5535M32.233 66.4806H52.3787C52.9535 66.4806 53.433 66.2886 53.8171 65.9045C54.2012 65.5204 54.3932 65.0409 54.3932 64.4661C54.3932 63.8912 54.2012 63.4118 53.8171 63.0277C53.433 62.6436 52.9535 62.4515 52.3787 62.4515H32.233C31.6609 62.4515 31.1814 62.6436 30.7946 63.0277C30.4078 63.4118 30.2158 63.8912 30.2185 64.4661C30.2212 65.0409 30.4132 65.5204 30.7946 65.9045C31.1761 66.2886 31.6555 66.4806 32.233 66.4806ZM32.233 50.3641H64.4661C65.0409 50.3641 65.5204 50.1721 65.9045 49.7879C66.2886 49.4038 66.4806 48.9244 66.4806 48.3495C66.4806 47.7747 66.2886 47.2953 65.9045 46.9111C65.5204 46.527 65.0409 46.335 64.4661 46.335H32.233C31.6609 46.335 31.1814 46.527 30.7946 46.9111C30.4078 47.2953 30.2158 47.7747 30.2185 48.3495C30.2212 48.9244 30.4132 49.4038 30.7946 49.7879C31.1761 50.1721 31.6555 50.3641 32.233 50.3641ZM32.233 34.2476H64.4661C65.0409 34.2476 65.5204 34.0555 65.9045 33.6714C66.2886 33.2873 66.4806 32.8079 66.4806 32.233C66.4806 31.6582 66.2886 31.1787 65.9045 30.7946C65.5204 30.4105 65.0409 30.2185 64.4661 30.2185H32.233C31.6609 30.2185 31.1814 30.4105 30.7946 30.7946C30.4078 31.1787 30.2158 31.6582 30.2185 32.233C30.2212 32.8079 30.4132 33.2873 30.7946 33.6714C31.1761 34.0555 31.6555 34.2476 32.233 34.2476Z" fill="var(--fill-0, #D7F3FF)"/>
</g>
</svg>
