<svg preserveAspectRatio="none" width="100%" height="100%" overflow="visible" style="display: block;" viewBox="0 0 144.75 144.75" fill="none" xmlns="http://www.w3.org/2000/svg">
<g id="Group">
<path id="Vector" d="M64.75 91.4375C64.75 101.96 81.8224 110.5 102.875 110.5C123.928 110.5 141 101.96 141 91.4375M3.75 53.3125C3.75 63.835 20.8224 72.375 41.875 72.375C50.4608 72.375 58.3831 70.9568 64.75 68.5625M3.75 80C3.75 90.5225 20.8224 99.0625 41.875 99.0625C50.4608 99.0625 58.3755 97.6443 64.75 95.25M102.875 80C81.8224 80 64.75 71.46 64.75 60.9375C64.75 50.415 81.8224 41.875 102.875 41.875C123.928 41.875 141 50.415 141 60.9375C141 71.46 123.928 80 102.875 80Z" stroke="var(--stroke-0, #D7F3FF)" stroke-width="7.5" stroke-linecap="round" stroke-linejoin="round"/>
<path id="Vector_2" d="M3.75 22.8125V106.688C3.75 117.21 20.8224 125.75 41.875 125.75C50.4608 125.75 58.3755 124.332 64.75 121.938M64.75 121.938V60.9375M64.75 121.938C64.75 132.46 81.8224 141 102.875 141C123.928 141 141 132.46 141 121.938V60.9375M80 45.6875V22.8125" stroke="var(--stroke-0, #D7F3FF)" stroke-width="7.5" stroke-linecap="round" stroke-linejoin="round"/>
<path id="Vector_3" d="M41.875 41.875C20.8224 41.875 3.75 33.335 3.75 22.8125C3.75 12.29 20.8224 3.75 41.875 3.75C62.9276 3.75 80 12.29 80 22.8125C80 33.335 62.9276 41.875 41.875 41.875Z" stroke="var(--stroke-0, #D7F3FF)" stroke-width="7.5" stroke-linecap="round" stroke-linejoin="round"/>
</g>
</svg>
