<svg preserveAspectRatio="none" width="100%" height="100%" overflow="visible" style="display: block;" viewBox="0 0 149.886 149.886" fill="none" xmlns="http://www.w3.org/2000/svg">
<g id="carbon:catalog-publish">
<path id="Vector" d="M93.6786 93.6786L100.236 100.236L88.0579 112.414H131.15V121.782H88.0579L100.236 133.96L93.6786 140.518L70.2589 117.098L93.6786 93.6786ZM65.575 70.2589H103.046V79.6268H65.575V70.2589ZM65.575 37.4714H103.046V46.8393H65.575V37.4714Z" fill="var(--fill-0, #D7F3FF)"/>
<path id="Vector_2" d="M60.8911 131.15H37.4714V112.414H46.8393V103.046H37.4714V79.6268H46.8393V70.2589H37.4714V46.8393H46.8393V37.4714H37.4714V18.7357H121.782V93.6786H131.15V18.7357C131.15 13.5834 126.934 9.36786 121.782 9.36786H37.4714C32.3191 9.36786 28.1036 13.5834 28.1036 18.7357V37.4714H18.7357V46.8393H28.1036V70.2589H18.7357V79.6268H28.1036V103.046H18.7357V112.414H28.1036V131.15C28.1036 136.302 32.3191 140.518 37.4714 140.518H60.8911V131.15Z" fill="var(--fill-0, #D7F3FF)"/>
</g>
</svg>
