<svg preserveAspectRatio="none" width="100%" height="100%" overflow="visible" style="display: block;" viewBox="0 0 175.105 175.105" fill="none" xmlns="http://www.w3.org/2000/svg">
<g id="si:book-line">
<path id="Vector" d="M87.5525 53.5019C87.5525 40.1282 76.6084 29.1842 63.2348 29.1842H14.5921V116.737H63.5339C87.5525 116.737 87.5525 141.062 87.5525 141.062M87.5525 141.062V53.5019C87.5525 40.1209 98.4966 29.1842 111.87 29.1842H160.513V116.737H111.87C87.5525 116.737 87.5525 141.062 87.5525 141.062ZM101.233 149.262C102.755 146.11 105.126 143.444 108.08 141.565C111.035 139.685 114.454 138.667 117.955 138.625H153.217M73.8724 149.262C72.3779 146.088 70.013 143.403 67.0527 141.52C64.0924 139.637 60.6584 138.633 57.1499 138.625H21.8881" stroke="var(--stroke-0, #D7F3FF)" stroke-width="8" stroke-miterlimit="10" stroke-linecap="round" stroke-linejoin="round"/>
</g>
</svg>
