<svg width="13" height="13" viewBox="0 0 13 13" fill="none" xmlns="http://www.w3.org/2000/svg">
<path d="M6.114 6.822L0.868 12.068C0.774667 12.1613 0.66 12.2113 0.524 12.218C0.388 12.2247 0.266667 12.1747 0.16 12.068C0.0533332 11.9613 0 11.8433 0 11.714C0 11.5847 0.0533332 11.4667 0.16 11.36L5.406 6.114L0.16 0.868C0.0666665 0.774667 0.0166664 0.66 0.00999975 0.524C0.00333309 0.388 0.0533332 0.266667 0.16 0.16C0.266667 0.0533332 0.384667 0 0.514 0C0.643333 0 0.761333 0.0533332 0.868 0.16L6.114 5.406L11.36 0.16C11.4533 0.0666665 11.5683 0.0166664 11.705 0.00999975C11.8403 0.00333309 11.9613 0.0533332 12.068 0.16C12.1747 0.266667 12.228 0.384667 12.228 0.514C12.228 0.643333 12.1747 0.761333 12.068 0.868L6.822 6.114L12.068 11.36C12.1613 11.4533 12.2113 11.5683 12.218 11.705C12.2247 11.8403 12.1747 11.9613 12.068 12.068C11.9613 12.1747 11.8433 12.228 11.714 12.228C11.5847 12.228 11.4667 12.1747 11.36 12.068L6.114 6.822Z" fill="black"/>
</svg>
