<svg width="25" height="25" viewBox="0 0 25 25" fill="none" xmlns="http://www.w3.org/2000/svg">
<path d="M14.0141 6.86328C14.0141 5.89245 14.0141 5.40703 13.8665 5.02474C13.7688 4.7718 13.6256 4.54198 13.4451 4.34841C13.2645 4.15484 13.0502 4.00132 12.8143 3.89661C12.4577 3.73828 12.005 3.73828 11.0995 3.73828H8.18495C6.35264 3.73828 5.43746 3.73828 4.86814 4.3487C4.29883 4.95911 4.29883 5.94036 4.29883 7.90495V11.0299C4.29883 12.0008 4.29883 12.4862 4.4465 12.8685C4.54415 13.1214 4.68734 13.3512 4.86788 13.5448C5.04841 13.7384 5.26276 13.8919 5.49867 13.9966C5.85522 14.1549 6.30795 14.1549 7.21342 14.1549" stroke="#30ABE0" stroke-width="1.20718"/>
<path d="M17.8972 9.99023H12.0681C10.9949 9.99023 10.125 10.923 10.125 12.0736V18.3236C10.125 19.4742 10.9949 20.4069 12.0681 20.4069H17.8972C18.9704 20.4069 19.8403 19.4742 19.8403 18.3236V12.0736C19.8403 10.923 18.9704 9.99023 17.8972 9.99023Z" stroke="#30ABE0" stroke-width="1.20718"/>
</svg>
