<svg width="24" height="24" viewBox="0 0 24 24" fill="none" xmlns="http://www.w3.org/2000/svg">
<path d="M3.69238 12.4458H8.677V13.9227H3.69238V12.4458ZM3.69238 9.49193H12.0001V10.9689H3.69238V9.49193ZM3.69238 6.53809H12.0001V8.01501H3.69238V6.53809Z" fill="white"/>
<path d="M10.4174 20.6152H2.50527V4.46133H21.4943V12.5383H23.0767V4.46133C23.0767 4.03291 22.91 3.62203 22.6132 3.31908C22.3165 3.01614 21.914 2.84595 21.4943 2.84595H2.50527C2.08559 2.84595 1.68309 3.01614 1.38633 3.31908C1.08957 3.62203 0.922852 4.03291 0.922852 4.46133V20.6152C0.922852 21.0436 1.08957 21.4545 1.38633 21.7574C1.68309 22.0604 2.08559 22.2306 2.50527 22.2306H10.4174V20.6152Z" fill="white"/>
<path d="M16.9226 20.0175L14.9303 17.985L13.8457 19.0915L16.9226 22.2306L23.0765 15.9525L21.9919 14.8459L16.9226 20.0175Z" fill="white"/>
</svg>
