<svg width="15" height="28" viewBox="0 0 15 28" fill="none" xmlns="http://www.w3.org/2000/svg">
<path d="M14.7079 0.811592C14.709 0.366232 14.3485 0.00448623 13.9032 0.0039499L10.6232 0C6.66022 0 4.10021 2.61311 4.10021 6.66195V8.92575C4.10021 9.37075 3.73947 9.73149 3.29447 9.73149H0.805739C0.360741 9.73149 0 10.0922 0 10.5372V14.4805C0 14.9255 0.360742 15.2862 0.80574 15.2862H3.29413C3.73926 15.2862 4.10006 15.6471 4.09987 16.0923L4.0956 26.26C4.09542 26.7051 4.45621 27.0661 4.90134 27.0661H9.0267C9.47157 27.0661 9.83225 26.7056 9.83244 26.2607L9.83671 16.0916C9.83689 15.6467 10.1976 15.2862 10.6424 15.2862H13.7354C14.1807 15.2862 14.5415 14.9251 14.5412 14.4799L14.5386 10.5379C14.5383 10.0931 14.1776 9.73272 13.7328 9.73272H10.6428C10.1978 9.73272 9.83705 9.37198 9.83705 8.92698V7.12823C9.83705 5.8758 10.135 5.24221 11.7728 5.24221L13.894 5.24132C14.3381 5.24113 14.6983 4.8816 14.6994 4.43748L14.7079 0.811592Z" fill="#47C0F3"/>
</svg>
