<svg width="106" height="106" viewBox="0 0 106 106" fill="none" xmlns="http://www.w3.org/2000/svg">
<g clip-path="url(#clip0_0_1464)">
<mask id="mask0_0_1464" style="mask-type:luminance" maskUnits="userSpaceOnUse" x="0" y="0" width="106" height="106">
<path d="M106 0H0V106H106V0Z" fill="white"/>
</mask>
<g mask="url(#mask0_0_1464)">
<path d="M45.7936 45.9194C51.6154 56.6758 58.9282 66.4415 69.365 69.9798C72.7018 71.1121 75.968 71.5368 78.9494 71.6782C91.6581 71.8902 100.391 65.0262 100.675 53.1376C100.675 52.2176 99.6102 51.793 98.9714 52.2883C98.5008 52.6529 98.4739 53.0031 98.3319 53.4277C98.2612 53.64 97.4803 58.3034 91.3034 59.5065C90.7783 59.6087 89.7416 59.7187 89.7416 59.7187C89.7416 59.7187 89.1021 59.7966 88.6053 59.7895C86.1207 59.7895 84.0614 58.9403 82.5704 57.2419C79.2335 53.4914 80.0857 46.6978 80.2278 46.1317C81.7188 29.6433 80.6539 18.2501 77.0329 12.3057V12.2349C72.1336 3.53075 64.0401 -0.573661 52.8224 0.0632309C47.2136 0.275528 42.3147 1.76161 39.4748 2.61079C38.7648 2.8231 38.8358 3.60152 39.4038 4.02611C42.5277 6.50292 50.1245 5.86602 50.1245 5.93678C50.8345 6.00755 51.3315 6.71521 51.2605 7.35212C51.1894 7.98897 50.4794 8.3428 49.8405 8.48435C49.6275 8.48435 42.1017 10.1827 34.3629 3.95535C28.8251 -0.361364 19.1694 2.25697 12.7796 6.78598C6.9577 10.8196 4.54377 17.4716 5.53775 26.3881C6.31872 33.2524 8.87465 39.0552 8.87465 39.1259L8.94567 39.2675C9.01662 39.4797 17.6784 65.2385 33.1559 63.8232C36.1379 63.5401 38.6228 62.054 40.6817 59.5065C43.5217 55.8266 45.0126 50.7315 45.7936 45.9194ZM59.5673 33.7477C57.7213 34.1016 56.0883 32.5447 56.4433 30.634C56.6563 29.5726 57.5083 28.7234 58.5022 28.5818C60.3482 28.228 61.9812 29.7848 61.6261 31.6955C61.4842 32.6863 60.6322 33.5354 59.5673 33.7477Z" fill="url(#paint0_linear_0_1464)"/>
<path d="M3.62021 91.9169C2.27125 91.9169 1.13528 91.7755 0.283306 91.4215V89.8647C0.709292 90.006 1.27728 90.1481 1.77427 90.2894C2.27125 90.3601 2.83923 90.4307 3.47822 90.4307C4.3302 90.4307 4.96917 90.3601 5.39516 90.1481C5.82115 89.9354 6.03415 89.5107 6.03415 88.9446C6.03415 88.5913 5.96315 88.2372 5.82115 88.0245C5.67915 87.8125 5.39516 87.6712 4.89818 87.3878C4.54319 87.2465 3.9042 87.1052 3.19422 86.8925C2.05826 86.6098 1.20628 86.1851 0.780291 85.7604C0.354304 85.3357 0.0703125 84.699 0.0703125 83.8495C0.0703125 82.9295 0.425302 82.1514 1.13528 81.6561C1.84527 81.1607 2.91023 80.8066 4.1882 80.8066C4.82718 80.8066 5.39516 80.8773 5.96315 80.948C6.46013 81.0194 6.95712 81.09 7.2411 81.2313V82.7881C6.38913 82.5048 5.46616 82.3634 4.40119 82.3634C3.54922 82.3634 2.98123 82.4341 2.55524 82.6468C2.12925 82.8588 1.84527 83.2835 1.84527 83.7789C1.84527 84.0623 1.91626 84.4156 2.05825 84.5576C2.20025 84.7696 2.48424 84.911 2.91023 85.053C3.26522 85.1943 3.8332 85.3357 4.47219 85.477C5.39516 85.6897 5.96315 85.9017 6.53113 86.2557C6.95712 86.5384 7.38314 86.9631 7.52511 87.3172C7.7381 87.6712 7.80912 88.1666 7.80912 88.662C7.80912 89.5813 7.45409 90.3601 6.74413 90.8554C6.10514 91.6342 5.04017 91.9169 3.62021 91.9169Z" fill="white"/>
<path d="M14.7674 91.9175C13.0635 91.9175 11.7855 91.4928 11.0046 90.5727C10.1525 89.6533 9.72656 88.3085 9.72656 86.3977C9.72656 84.4869 10.1525 83.0721 11.0046 82.1521C11.8565 81.232 13.1345 80.8779 14.7674 80.8779C16.4004 80.8779 17.7493 81.3026 18.5304 82.1521C19.3823 83.0721 19.7373 84.4162 19.7373 86.3977C19.7373 88.3792 19.3823 89.6533 18.5304 90.5727C17.7493 91.4221 16.4714 91.9175 14.7674 91.9175ZM14.7674 90.3607C15.9034 90.3607 16.7554 90.0773 17.1814 89.4406C17.6783 88.8039 17.9623 87.8838 17.9623 86.3977C17.9623 84.9116 17.7493 83.9208 17.1814 83.2841C16.6844 82.6474 15.8324 82.3641 14.7674 82.3641C13.7025 82.3641 12.8505 82.6474 12.3535 83.2841C11.8565 83.9208 11.5725 84.8409 11.5725 86.3977C11.5725 87.8132 11.7855 88.8039 12.3535 89.4406C12.7795 90.0773 13.6315 90.3607 14.7674 90.3607Z" fill="white"/>
<path d="M26.9779 91.9175C25.203 91.9175 23.854 91.4928 22.931 90.502C22.0081 89.5113 21.582 88.2379 21.582 86.6104C21.582 85.4776 21.7241 84.4162 22.2211 83.5675C22.576 82.7181 23.215 82.0814 23.996 81.586C24.7769 81.0906 25.7709 80.8779 27.0489 80.8779C27.6879 80.8779 28.2559 80.9486 28.7529 81.0193C29.1788 81.0906 29.7469 81.232 30.1728 81.3733V82.9301C29.7469 82.7888 29.2499 82.6474 28.7529 82.5768C28.2559 82.5054 27.6879 82.4347 27.1909 82.4347C25.9129 82.4347 24.919 82.7888 24.351 83.4961C23.854 84.2042 23.499 85.2656 23.499 86.539C23.499 87.7425 23.783 88.7332 24.422 89.3699C25.061 90.0773 25.9129 90.3607 27.1909 90.3607C27.6879 90.3607 28.1848 90.29 28.6818 90.2194C29.1788 90.1487 29.6758 90.0067 30.1018 89.8653V91.4221C29.6758 91.5634 29.1788 91.6348 28.6818 91.7055C28.1139 91.9175 27.6169 91.9175 26.9779 91.9175Z" fill="white"/>
<path d="M36.7069 91.9175C35.003 91.9175 33.725 91.4928 32.944 90.5727C32.092 89.6533 31.666 88.3085 31.666 86.3977C31.666 84.4869 32.092 83.0721 32.944 82.1521C33.796 81.232 35.0739 80.8779 36.7069 80.8779C38.3398 80.8779 39.6888 81.3026 40.4698 82.1521C41.3218 83.0721 41.6767 84.4162 41.6767 86.3977C41.6767 88.3792 41.3218 89.6533 40.4698 90.5727C39.6888 91.4221 38.4109 91.9175 36.7069 91.9175ZM36.7069 90.3607C37.8428 90.3607 38.6948 90.0773 39.1208 89.4406C39.6178 88.8039 39.9018 87.8838 39.9018 86.3977C39.9018 84.9116 39.6888 83.9208 39.1208 83.2841C38.6239 82.6474 37.7718 82.3641 36.7069 82.3641C35.5709 82.3641 34.7899 82.6474 34.293 83.2841C33.796 83.9208 33.512 84.8409 33.512 86.3977C33.512 87.8132 33.725 88.8039 34.293 89.4406C34.7899 90.0773 35.5709 90.3607 36.7069 90.3607Z" fill="white"/>
<path d="M43.5938 91.7055V90.29H45.0847V91.7055C45.1557 91.7055 43.5938 91.7055 43.5938 91.7055Z" fill="white"/>
<path d="M52.3255 91.9175C50.5506 91.9175 49.2016 91.4928 48.2786 90.502C47.3557 89.5113 46.9297 88.2379 46.9297 86.6104C46.9297 85.4776 47.0717 84.4162 47.5687 83.5675C47.9237 82.7181 48.5627 82.0814 49.3437 81.586C50.1246 81.0906 51.1186 80.8779 52.3965 80.8779C53.0355 80.8779 53.6035 80.9486 54.1005 81.0193C54.5265 81.0906 55.0944 81.232 55.5204 81.3733V82.9301C55.0944 82.7888 54.5974 82.6474 54.1005 82.5768C53.6035 82.5054 53.0355 82.4347 52.5386 82.4347C51.2606 82.4347 50.2666 82.7888 49.6986 83.4961C49.2016 84.2042 48.8467 85.2656 48.8467 86.539C48.8467 87.7425 49.1306 88.7332 49.7696 89.3699C50.4086 90.0773 51.2606 90.3607 52.5386 90.3607C53.0355 90.3607 53.5325 90.29 54.0295 90.2194C54.5265 90.1487 55.0235 90.0067 55.4495 89.8653V91.4221C55.0235 91.5634 54.5265 91.6348 54.0295 91.7055C53.5325 91.9175 52.9646 91.9175 52.3255 91.9175Z" fill="white"/>
<path d="M62.0531 92.0582C60.9171 92.0582 59.9941 91.8462 59.2842 91.3508C58.5742 90.8554 58.0772 90.2894 57.7932 89.44C57.5092 88.5913 57.3672 87.6005 57.3672 86.4677C57.3672 85.3357 57.5092 84.2743 57.7932 83.4248C58.0772 82.5761 58.6452 81.9387 59.2842 81.514C59.9941 81.09 60.8461 80.8066 62.0531 80.8066C63.1891 80.8066 64.112 81.0193 64.822 81.514C65.532 81.9387 65.958 82.5761 66.2419 83.4248C66.5259 84.2743 66.668 85.265 66.668 86.4677C66.668 87.6712 66.5259 88.5913 66.2419 89.44C65.958 90.2894 65.39 90.8554 64.751 91.3508C64.041 91.8462 63.1891 92.0582 62.0531 92.0582ZM62.0531 90.5014C63.118 90.5014 63.899 90.1481 64.254 89.44C64.68 88.7326 64.893 87.7419 64.893 86.5384C64.893 85.265 64.68 84.2036 64.254 83.4955C63.899 82.7881 63.118 82.4341 62.0531 82.4341C60.9881 82.4341 60.2071 82.7881 59.7812 83.4955C59.4261 84.2036 59.1422 85.265 59.1422 86.5384C59.1422 87.7419 59.3552 88.7326 59.7812 89.44C60.2071 90.1481 60.9881 90.5014 62.0531 90.5014Z" fill="white"/>
<path d="M68.8672 91.705V81.0195H70.7131L74.1207 87.8834L77.4583 81.0195H79.3041V91.705H77.4583V83.9918L74.5468 89.8649H73.4819L70.5711 83.9918V91.705H68.8672Z" fill="white"/>
<path d="M81.4336 91.7055V90.29H82.9247V91.7055H81.4336Z" fill="white"/>
<path d="M89.7422 91.9173C88.3218 91.9173 87.1862 91.5633 86.3339 90.8559C85.4817 90.1485 85.127 89.0871 85.127 87.813V81.1611H86.9728V87.813C86.9728 88.7331 87.1862 89.3698 87.7543 89.7945C88.1798 90.2192 88.9606 90.5019 89.8842 90.5019C90.8071 90.5019 91.446 90.2899 91.9428 89.7945C92.3689 89.3698 92.7236 88.6624 92.7236 87.813V81.1611H94.5701V87.813C94.5701 89.1578 94.2147 90.1485 93.3632 90.8559C92.5109 91.5633 91.3039 91.9173 89.7422 91.9173Z" fill="white"/>
<path d="M95.7773 91.705L99.8958 81.0195H101.954L106.001 91.705H104.156L103.091 88.9448H98.7595L97.6945 91.705H95.7773ZM98.9729 87.6007H102.665L100.819 82.7883L98.9729 87.6007Z" fill="white"/>
<path d="M2.05894 104.655C1.56195 104.655 1.06497 104.584 0.78098 104.372C0.496986 104.16 0.283992 103.877 0.141996 103.452C0 103.098 0 102.603 0 102.179V99.4186C0 98.9233 0.0709981 98.4279 0.141996 98.0738C0.283992 97.7205 0.425988 97.3665 0.78098 97.1545C1.13597 96.9418 1.56195 96.8711 2.05894 96.8711C2.48493 96.8711 2.91092 96.9418 3.19491 97.0831C3.4789 97.2251 3.6209 97.5078 3.83389 97.8618C4.04688 98.2159 3.97589 98.6406 3.97589 99.0646V99.702H2.98191V99.2066C2.98191 98.9232 2.98191 98.7113 2.91092 98.4279C2.91092 98.2159 2.83992 98.0738 2.69793 97.9325C2.55593 97.7912 2.41393 97.7912 2.05894 97.7912C1.70395 97.7912 1.56195 97.8618 1.34896 98.0032C1.20697 98.1452 1.13597 98.2865 1.06497 98.4985C0.993969 98.7112 0.993969 98.9939 0.993969 99.348V102.391C0.993969 102.745 0.993969 103.098 1.06497 103.311C1.13597 103.523 1.20697 103.664 1.34896 103.736C1.49096 103.806 1.63295 103.877 1.98795 103.877C2.34293 103.877 2.48493 103.806 2.62693 103.664C2.76892 103.523 2.83992 103.382 2.83992 103.17C2.83992 102.957 2.91092 102.674 2.91092 102.32V101.683H3.90489V102.32C3.90489 102.745 3.83389 103.24 3.76289 103.523C3.6919 103.877 3.4789 104.16 3.12391 104.372C2.98191 104.584 2.62693 104.655 2.05894 104.655Z" fill="white"/>
<path d="M6.10609 104.584V97.7205H4.82812V96.8711H8.44903V97.7205H7.17109V104.584H6.10609Z" fill="white"/>
<path d="M11.4307 104.655C10.9337 104.655 10.5078 104.584 10.2238 104.372C9.93975 104.159 9.72676 103.947 9.51377 103.523C9.3718 103.169 9.30078 102.673 9.30078 102.249V99.3476C9.30078 98.8522 9.3718 98.4275 9.51377 98.0735C9.65581 97.7201 9.8688 97.4368 10.2238 97.2248C10.5078 97.0121 11.0048 96.9414 11.4307 96.9414C11.9277 96.9414 12.3537 97.0121 12.6377 97.2248C12.9217 97.4368 13.1347 97.6495 13.3476 98.0735C13.4897 98.4275 13.5606 98.8522 13.5606 99.3476V102.32C13.5606 102.815 13.4897 103.24 13.3476 103.593C13.2057 103.947 12.9927 104.301 12.6377 104.443C12.3537 104.584 11.9987 104.655 11.4307 104.655ZM11.4307 103.877C11.7147 103.877 11.9277 103.806 12.1407 103.735C12.2827 103.593 12.3537 103.452 12.4247 103.24C12.4957 103.027 12.4957 102.815 12.4957 102.461V99.0642C12.4957 98.7816 12.4957 98.5689 12.4247 98.2862C12.3537 98.0735 12.2827 97.9321 12.1407 97.8615C11.9987 97.7908 11.7857 97.7201 11.4307 97.7201C11.1467 97.7201 10.9337 97.7908 10.7208 97.8615C10.5787 97.9321 10.5078 98.1449 10.4367 98.2862C10.3657 98.4982 10.3657 98.7109 10.3657 99.0642V102.391C10.3657 102.673 10.3657 102.886 10.4367 103.169C10.5078 103.381 10.5787 103.523 10.7208 103.664C10.9337 103.806 11.1467 103.877 11.4307 103.877Z" fill="white"/>
<path d="M14.8398 104.584L14.9818 96.9414H16.0468L17.3958 103.169L18.7447 96.9414H19.8097L19.9517 104.584H19.0997L19.0287 98.9936L17.7507 104.584H17.1828L15.9048 98.9936L15.8338 104.584H14.8398Z" fill="white"/>
<path d="M20.9453 104.584L22.6493 96.9414H23.7142L25.4182 104.584H24.4242L24.0692 102.603H22.5073L22.1523 104.584H20.9453ZM22.4363 101.895H23.7142L23.0043 98.4275L22.4363 101.895Z" fill="white"/>
<path d="M26.8365 104.584V97.7205H25.5586V96.8711H29.1795V97.7205H27.9015V104.584H26.8365Z" fill="white"/>
<path d="M32.1612 104.655C31.6642 104.655 31.2382 104.584 30.9542 104.372C30.6702 104.159 30.4572 103.947 30.2442 103.523C30.1023 103.169 30.0312 102.673 30.0312 102.249V99.3476C30.0312 98.8522 30.1023 98.4275 30.2442 98.0735C30.3863 97.7201 30.5993 97.4368 30.9542 97.2248C31.2382 97.0121 31.7352 96.9414 32.1612 96.9414C32.5872 96.9414 33.0842 97.0121 33.3682 97.2248C33.6521 97.4368 33.8651 97.6495 34.0781 98.0735C34.2202 98.4275 34.2912 98.8522 34.2912 99.3476V102.32C34.2912 102.815 34.2202 103.24 34.0781 103.593C33.9361 103.947 33.7232 104.301 33.3682 104.443C33.0842 104.584 32.6582 104.655 32.1612 104.655ZM32.1612 103.877C32.4452 103.877 32.6582 103.806 32.8712 103.735C33.0132 103.593 33.0842 103.452 33.1552 103.24C33.2262 103.027 33.2262 102.815 33.2262 102.461V99.0642C33.2262 98.7816 33.2262 98.5689 33.1552 98.2862C33.0842 98.0735 33.0132 97.9321 32.8712 97.8615C32.7292 97.7908 32.5162 97.7201 32.1612 97.7201C31.8772 97.7201 31.6642 97.7908 31.4512 97.8615C31.3093 97.9321 31.2382 98.1449 31.1672 98.2862C31.0963 98.4982 31.0963 98.7109 31.0963 99.0642V102.391C31.0963 102.673 31.0963 102.886 31.1672 103.169C31.2382 103.452 31.3093 103.523 31.4512 103.664C31.6642 103.806 31.8772 103.877 32.1612 103.877Z" fill="white"/>
<path d="M35.002 104.584V103.735H35.357C35.499 103.735 35.57 103.664 35.6409 103.593C35.7119 103.523 35.783 103.381 35.854 103.169C35.9249 102.957 35.9959 102.745 35.9959 102.32C36.067 101.966 36.067 101.541 36.1379 101.046L36.3509 96.9414H39.7588V104.584H38.6939V97.7201H37.3449L37.2029 100.975C37.2029 101.47 37.1319 101.895 37.0609 102.32C36.9899 102.673 36.9189 103.098 36.8479 103.381C36.777 103.664 36.6349 103.877 36.4929 104.159C36.3509 104.372 36.1379 104.443 35.854 104.513C35.57 104.584 35.286 104.584 35.002 104.584Z" fill="white"/>
<path d="M43.2373 104.655C42.7404 104.655 42.3143 104.584 42.0304 104.372C41.7464 104.159 41.5334 103.947 41.3204 103.523C41.1784 103.169 41.1074 102.673 41.1074 102.249V99.3476C41.1074 98.8522 41.1784 98.4275 41.3204 98.0735C41.4624 97.7201 41.6754 97.4368 42.0304 97.2248C42.3854 97.0121 42.8113 96.9414 43.2373 96.9414C43.7343 96.9414 44.1603 97.0121 44.4443 97.2248C44.7283 97.4368 44.9413 97.6495 45.1543 98.0735C45.2963 98.4275 45.3673 98.8522 45.3673 99.3476V102.32C45.3673 102.815 45.2963 103.24 45.1543 103.593C45.0123 103.947 44.7993 104.301 44.4443 104.443C44.1603 104.584 43.8053 104.655 43.2373 104.655ZM43.2373 103.877C43.5213 103.877 43.7343 103.806 43.9473 103.735C44.0893 103.593 44.1603 103.452 44.2313 103.24C44.3023 103.027 44.3023 102.815 44.3023 102.461V99.0642C44.3023 98.7816 44.3023 98.5689 44.2313 98.2862C44.1603 98.0735 44.0893 97.9321 43.9473 97.8615C43.8053 97.7908 43.5923 97.7201 43.2373 97.7201C42.8824 97.7201 42.7404 97.7908 42.5274 97.8615C42.3854 97.9321 42.3143 98.1449 42.2434 98.2862C42.1724 98.4982 42.1724 98.7109 42.1724 99.0642V102.391C42.1724 102.673 42.1724 102.886 42.2434 103.169C42.3143 103.452 42.3854 103.523 42.5274 103.664C42.7404 103.806 42.9534 103.877 43.2373 103.877Z" fill="white"/>
<path d="M46.6445 104.584V96.9414H49.6264V97.7908H47.7805V104.655L46.6445 104.584Z" fill="white"/>
<path d="M50.6211 104.584V96.9414H51.686V104.584H50.6211Z" fill="white"/>
<path d="M56.0887 104.584V101.046C55.6628 101.117 55.3077 101.188 54.9528 101.188C54.5268 101.188 54.1008 101.117 53.8878 100.975C53.6038 100.834 53.3908 100.693 53.1778 100.339C53.0358 100.126 52.9648 99.702 52.9648 99.348V96.8711H54.0298V99.348C54.0298 99.56 54.0298 99.7727 54.1008 99.9847C54.1718 100.197 54.2428 100.268 54.3847 100.339C54.5268 100.409 54.7398 100.48 55.0238 100.48H55.4498C55.5917 100.48 55.7338 100.409 55.8757 100.409V96.9418H56.9407V104.584H56.0887Z" fill="white"/>
<path d="M58.5742 104.584V96.9414H59.6392V100.268H61.6272V96.9414H62.6921V104.584H61.6272V101.046H59.6392V104.584H58.5742Z" fill="white"/>
<path d="M64.2539 104.584V96.9414H65.3189V104.584H64.2539Z" fill="white"/>
<path d="M69.1523 104.584V96.9414H73.4123V104.584H72.3474V97.7201H70.2173V104.584H69.1523Z" fill="white"/>
<path d="M74.832 104.584V96.9414H76.7492C77.1753 96.9414 77.6008 97.0121 77.8848 97.1541C78.1689 97.2954 78.311 97.5074 78.5244 97.9321C78.6657 98.2155 78.6657 98.6395 78.6657 99.0642C78.6657 99.4183 78.595 99.843 78.453 100.126C78.311 100.409 78.0982 100.621 77.8142 100.834C77.5301 100.975 77.1753 101.046 76.7492 101.046H75.897V104.584H74.832ZM75.897 100.268H76.3938C76.6778 100.268 76.8913 100.268 77.1753 100.197C77.3174 100.126 77.4594 99.9843 77.5301 99.843C77.6008 99.7016 77.6008 99.4183 77.6008 99.0642C77.6008 98.7109 77.6008 98.3569 77.5301 98.2155C77.4594 98.0028 77.388 97.9321 77.246 97.8615C77.104 97.7908 76.8199 97.7908 76.3938 97.7908H75.897V100.268Z" fill="white"/>
<path d="M79.6602 104.584V96.9414H80.5831V102.249L82.855 96.9414H83.6359V104.584H82.713V99.2063L80.5124 104.584H79.6602Z" fill="white"/>
<path d="M84.4883 104.584V103.735H84.843C84.9851 103.735 85.0564 103.664 85.1271 103.593C85.1985 103.523 85.2691 103.381 85.3405 103.169C85.4112 102.957 85.4819 102.745 85.4819 102.32C85.5532 101.966 85.5532 101.541 85.6239 101.046L85.8373 96.9414H89.2449V104.584H88.1799V97.7201H86.8309L86.6888 100.975C86.6888 101.47 86.6182 101.895 86.5475 102.32C86.4761 102.673 86.4055 103.098 86.3341 103.381C86.2634 103.664 86.1214 103.877 85.9793 104.159C85.8373 104.443 85.6239 104.443 85.3405 104.513C85.1985 104.584 84.9144 104.584 84.4883 104.584Z" fill="white"/>
<path d="M90.4512 104.584L92.1556 96.9414H93.2206L94.9244 104.584H93.8594L93.504 102.603H91.9422L91.5875 104.584H90.4512ZM91.9422 101.895H93.2206L92.5104 98.4275L91.9422 101.895Z" fill="white"/>
<path d="M95.2793 106V103.806H95.6348C95.7054 103.736 95.8475 103.594 95.9181 103.523C95.9895 103.382 96.1315 103.24 96.2022 103.028C96.2736 102.816 96.3442 102.603 96.4156 102.179C96.4863 101.895 96.5577 101.4 96.6283 100.975C96.6997 100.48 96.6997 99.914 96.7704 99.136L96.9124 96.8711H100.107V103.736H100.888V105.929H99.9652L99.8945 104.584H96.1315L96.0602 105.929L95.2793 106ZM96.5577 103.877H99.0423V97.7205H97.8353L97.7646 99.4893C97.7646 100.197 97.6933 100.763 97.6226 101.259C97.5512 101.683 97.4806 102.107 97.4806 102.391C97.4092 102.674 97.3385 102.886 97.2672 103.17C97.1965 103.311 97.1251 103.452 96.9831 103.594C96.8417 103.736 96.7704 103.806 96.5577 103.877Z" fill="white"/>
<path d="M101.953 104.584V96.9414H102.876V102.249L105.148 96.9414H105.93V104.584H105.006V99.2063L102.805 104.584H101.953Z" fill="white"/>
</g>
</g>
<defs>
<linearGradient id="paint0_linear_0_1464" x1="4.96976" y1="32.198" x2="100.817" y2="32.198" gradientUnits="userSpaceOnUse">
<stop stop-color="#01ACED"/>
<stop offset="1" stop-color="#1C76BD"/>
</linearGradient>
<clipPath id="clip0_0_1464">
<rect width="106" height="106" fill="white"/>
</clipPath>
</defs>
</svg>
