<svg width="28" height="26" viewBox="0 0 28 26" fill="none" xmlns="http://www.w3.org/2000/svg">
<path d="M19.2034 0H7.8627C2.93667 0 0 2.80899 0 7.52084V18.3555C0 23.0803 2.93667 25.8893 7.8627 25.8893H19.1899C24.1159 25.8893 27.0526 23.0803 27.0526 18.3685V7.52084C27.0661 2.80899 24.1294 0 19.2034 0ZM13.533 17.9672C10.637 17.9672 8.28222 15.7148 8.28222 12.9447C8.28222 10.1745 10.637 7.92213 13.533 7.92213C16.4291 7.92213 18.7839 10.1745 18.7839 12.9447C18.7839 15.7148 16.4291 17.9672 13.533 17.9672ZM21.5446 6.31699C21.4769 6.47233 21.3822 6.61472 21.2604 6.74416C21.1251 6.86067 20.9762 6.95128 20.8138 7.016C20.6514 7.08073 20.4755 7.11956 20.2996 7.11956C19.9342 7.11956 19.5959 6.99011 19.3387 6.74416C19.2169 6.61472 19.1222 6.47233 19.0545 6.31699C18.9869 6.16165 18.9463 5.99337 18.9463 5.82509C18.9463 5.65681 18.9869 5.48853 19.0545 5.3332C19.1222 5.16492 19.2169 5.03547 19.3387 4.90602C19.65 4.6083 20.1236 4.46591 20.5567 4.55652C20.6514 4.56946 20.7326 4.59535 20.8138 4.63419C20.895 4.66008 20.9762 4.69891 21.0574 4.75069C21.1251 4.78952 21.1927 4.85424 21.2604 4.90602C21.3822 5.03547 21.4769 5.16492 21.5446 5.3332C21.6123 5.48853 21.6529 5.65681 21.6529 5.82509C21.6529 5.99337 21.6123 6.16165 21.5446 6.31699Z" fill="#47C0F3"/>
</svg>
