<svg width="40" height="40" viewBox="0 0 40 40" fill="none" xmlns="http://www.w3.org/2000/svg">
<g clip-path="url(#clip0_4301_480)">
<path d="M31.1978 13.832V11.4938C31.1978 8.44548 29.9868 5.52198 27.8313 3.36647C25.6758 1.21095 22.7523 0 19.7039 0C16.6556 0 13.7321 1.21095 11.5766 3.36647C9.42106 5.52198 8.21011 8.44548 8.21011 11.4938V13.832C6.7477 14.4703 5.50297 15.5208 4.62814 16.8552C3.7533 18.1897 3.28628 19.7501 3.28418 21.3457V31.1976C3.28679 33.3741 4.15259 35.4608 5.69168 36.9999C7.23077 38.539 9.31747 39.4048 11.4941 39.4074H27.9138C30.0904 39.4048 32.1771 38.539 33.7162 36.9999C35.2553 35.4608 36.1211 33.3741 36.1237 31.1976V21.3457C36.1216 19.7501 35.6546 18.1897 34.7798 16.8552C33.9049 15.5208 32.6602 14.4703 31.1978 13.832ZM11.4941 11.4938C11.4941 9.31644 12.359 7.22822 13.8987 5.68857C15.4383 4.14892 17.5265 3.28395 19.7039 3.28395C21.8813 3.28395 23.9696 4.14892 25.5092 5.68857C27.0489 7.22822 27.9138 9.31644 27.9138 11.4938V13.1358H11.4941V11.4938ZM32.8398 31.1976C32.8398 32.504 32.3208 33.7569 31.397 34.6807C30.4732 35.6045 29.2203 36.1235 27.9138 36.1235H11.4941C10.1876 36.1235 8.9347 35.6045 8.0109 34.6807C7.08711 33.7569 6.56813 32.504 6.56813 31.1976V21.3457C6.56813 20.0393 7.08711 18.7863 8.0109 17.8625C8.9347 16.9387 10.1876 16.4198 11.4941 16.4198H27.9138C29.2203 16.4198 30.4732 16.9387 31.397 17.8625C32.3208 18.7863 32.8398 20.0393 32.8398 21.3457V31.1976Z" fill="#30ABE0"/>
<path d="M19.7035 22.9872C19.268 22.9872 18.8504 23.1602 18.5425 23.4681C18.2345 23.776 18.0615 24.1937 18.0615 24.6292V27.9131C18.0615 28.3486 18.2345 28.7662 18.5425 29.0742C18.8504 29.3821 19.268 29.5551 19.7035 29.5551C20.139 29.5551 20.5566 29.3821 20.8646 29.0742C21.1725 28.7662 21.3455 28.3486 21.3455 27.9131V24.6292C21.3455 24.1937 21.1725 23.776 20.8646 23.4681C20.5566 23.1602 20.139 22.9872 19.7035 22.9872Z" fill="#30ABE0"/>
</g>
<defs>
<clipPath id="clip0_4301_480">
<rect width="39.4074" height="39.4074" fill="white"/>
</clipPath>
</defs>
</svg>
