<svg width="66" height="49" viewBox="0 0 66 49" fill="none" xmlns="http://www.w3.org/2000/svg">
<path d="M27.6102 30.8936C31.5818 38.1301 36.5704 44.7001 43.6902 47.0805C45.9665 47.8424 48.1947 48.1281 50.2286 48.2232C58.8982 48.3658 64.8557 43.7479 65.0495 35.7497C65.0495 35.1308 64.323 34.8451 63.8872 35.1784C63.5662 35.4237 63.5479 35.6592 63.451 35.9449C63.4028 36.0877 62.8701 39.2251 58.6562 40.0345C58.298 40.1033 57.5908 40.1773 57.5908 40.1773C57.5908 40.1773 57.1546 40.2297 56.8157 40.2249C55.1207 40.2249 53.7159 39.6536 52.6987 38.511C50.4224 35.9877 51.0037 31.4173 51.1006 31.0364C52.1178 19.9436 51.3913 12.2786 48.9212 8.2795V8.23187C45.5789 2.37602 40.0577 -0.385282 32.4051 0.0431965C28.5789 0.186023 25.237 1.1858 23.2996 1.75711C22.8153 1.89994 22.8637 2.42363 23.2512 2.70928C25.3823 4.37559 30.5647 3.94711 30.5647 3.99471C31.049 4.04232 31.3881 4.51841 31.3396 4.9469C31.2912 5.37535 30.8068 5.6134 30.3709 5.70862C30.2256 5.70862 25.0917 6.85125 19.8124 2.66167C16.0345 -0.242456 9.4476 1.51906 5.08857 4.56602C1.117 7.2797 -0.529745 11.7549 0.148329 17.7536C0.681096 22.3717 2.42471 26.2756 2.42471 26.3232L2.47316 26.4184C2.52156 26.5612 8.43047 43.8908 18.989 42.9386C21.0232 42.7482 22.7184 41.7484 24.123 40.0345C26.0603 37.5588 27.0774 34.131 27.6102 30.8936ZM37.0064 22.7049C35.7471 22.943 34.6331 21.8956 34.8753 20.6101C35.0206 19.896 35.6018 19.3247 36.2798 19.2295C37.5391 18.9914 38.6531 20.0388 38.4109 21.3243C38.314 21.9908 37.7329 22.5621 37.0064 22.7049Z" fill="url(#paint0_linear_4301_317)"/>
<defs>
<linearGradient id="paint0_linear_4301_317" x1="-0.239145" y1="21.6623" x2="65.1464" y2="21.6623" gradientUnits="userSpaceOnUse">
<stop stop-color="#01ACED"/>
<stop offset="1" stop-color="#1C76BD"/>
</linearGradient>
</defs>
</svg>
