<svg width="119" height="29" viewBox="0 0 119 29" fill="none" xmlns="http://www.w3.org/2000/svg">
<path d="M4.06047 12.4606C2.54755 12.4606 1.27351 12.3021 0.317983 11.905V10.159C0.795745 10.3175 1.43276 10.4768 1.99016 10.6353C2.54755 10.7146 3.18457 10.7938 3.90121 10.7938C4.85675 10.7938 5.57338 10.7146 6.05115 10.4768C6.52892 10.2383 6.7678 9.76193 6.7678 9.12709C6.7678 8.73081 6.68817 8.33375 6.52891 8.09519C6.36966 7.85742 6.05115 7.69891 5.49376 7.38109C5.09562 7.22258 4.37898 7.06406 3.5827 6.82551C2.30867 6.50848 1.35314 6.03216 0.875373 5.55583C0.397611 5.0795 0.0791016 4.36541 0.0791016 3.41275C0.0791016 2.38084 0.477238 1.50824 1.27351 0.952657C2.06979 0.397074 3.2642 0 4.69749 0C5.41414 0 6.05115 0.0792594 6.68817 0.158515C7.24556 0.238563 7.80295 0.317814 8.12145 0.476325V2.22233C7.16593 1.90452 6.13078 1.74601 4.93637 1.74601C3.98084 1.74601 3.34382 1.82526 2.86606 2.06382C2.38829 2.30159 2.06979 2.77792 2.06979 3.3335C2.06979 3.65131 2.14941 4.04759 2.30867 4.20689C2.46792 4.44466 2.78643 4.60318 3.2642 4.76248C3.66233 4.92099 4.29935 5.0795 5.01599 5.23801C6.05115 5.47657 6.68817 5.71434 7.32519 6.11141C7.80295 6.42843 8.28075 6.90477 8.43998 7.30184C8.67885 7.69891 8.75851 8.25449 8.75851 8.81007C8.75851 9.84119 8.36033 10.7146 7.56407 11.2702C6.84743 12.1436 5.65301 12.4606 4.06047 12.4606Z" fill="black"/>
<path d="M16.5637 12.4604C14.6527 12.4604 13.2194 11.9841 12.3435 10.9522C11.3879 9.92109 10.9102 8.41285 10.9102 6.26977C10.9102 4.1267 11.3879 2.53999 12.3435 1.50808C13.299 0.476174 14.7323 0.0791016 16.5637 0.0791016C18.3951 0.0791016 19.9081 0.55543 20.784 1.50808C21.7395 2.53999 22.1376 4.04744 22.1376 6.26977C22.1376 8.4921 21.7395 9.92109 20.784 10.9522C19.9081 11.9049 18.4748 12.4604 16.5637 12.4604ZM16.5637 10.7144C17.8377 10.7144 18.7933 10.3966 19.2711 9.68252C19.8284 8.96843 20.1469 7.93652 20.1469 6.26977C20.1469 4.60302 19.9081 3.49186 19.2711 2.77777C18.7137 2.06367 17.7581 1.74585 16.5637 1.74585C15.3693 1.74585 14.4138 2.06367 13.8564 2.77777C13.299 3.49186 12.9805 4.52377 12.9805 6.26977C12.9805 7.85726 13.2194 8.96843 13.8564 9.68252C14.3342 10.3966 15.2897 10.7144 16.5637 10.7144Z" fill="black"/>
<path d="M30.2578 12.4604C28.2671 12.4604 26.7541 11.9841 25.719 10.8729C24.6839 9.76178 24.2061 8.33359 24.2061 6.50833C24.2061 5.23786 24.3654 4.04744 24.9228 3.09558C25.3209 2.14292 26.0375 1.42883 26.9134 0.873249C27.7893 0.317667 28.9041 0.0791016 30.3374 0.0791016C31.0541 0.0791016 31.691 0.158361 32.2485 0.237617C32.7262 0.317665 33.3633 0.476176 33.841 0.634688V2.38069C33.3633 2.22218 32.8059 2.06367 32.2485 1.98441C31.691 1.90436 31.0541 1.82511 30.4967 1.82511C29.0633 1.82511 27.9486 2.22218 27.3115 3.01553C26.7541 3.80967 26.356 5.00009 26.356 6.42828C26.356 7.77801 26.6746 8.88918 27.3912 9.60327C28.1078 10.3966 29.0633 10.7144 30.4967 10.7144C31.0541 10.7144 31.6114 10.6352 32.1688 10.5559C32.7262 10.4767 33.2836 10.3174 33.7614 10.1588V11.9049C33.2836 12.0634 32.7262 12.1434 32.1688 12.2227C31.5318 12.4604 30.9744 12.4604 30.2578 12.4604Z" fill="black"/>
<path d="M41.1672 12.4604C39.2562 12.4604 37.8229 11.9841 36.947 10.9522C35.9914 9.92109 35.5137 8.41285 35.5137 6.26977C35.5137 4.1267 35.9914 2.53999 36.947 1.50808C37.9025 0.476174 39.3358 0.0791016 41.1672 0.0791016C42.9987 0.0791016 44.5116 0.55543 45.3875 1.50808C46.343 2.53999 46.7411 4.04744 46.7411 6.26977C46.7411 8.4921 46.343 9.92109 45.3875 10.9522C44.5116 11.9049 43.0783 12.4604 41.1672 12.4604ZM41.1672 10.7144C42.4413 10.7144 43.3968 10.3966 43.8745 9.68252C44.4319 8.96843 44.7505 7.93652 44.7505 6.26977C44.7505 4.60302 44.5116 3.49186 43.8745 2.77777C43.3172 2.06367 42.3616 1.74585 41.1672 1.74585C39.8932 1.74585 39.0173 2.06367 38.4599 2.77777C37.9025 3.49186 37.584 4.52377 37.584 6.26977C37.584 7.85726 37.8229 8.96843 38.4599 9.68252C39.0173 10.3966 39.8932 10.7144 41.1672 10.7144Z" fill="black"/>
<path d="M48.8916 12.2228V10.6353H50.5637V12.2228C50.6434 12.2228 48.8916 12.2228 48.8916 12.2228Z" fill="black"/>
<path d="M58.6854 12.4604C56.6948 12.4604 55.1819 11.9841 54.1467 10.8729C53.1115 9.76178 52.6338 8.33359 52.6338 6.50833C52.6338 5.23786 52.7931 4.04744 53.3504 3.09558C53.7486 2.14292 54.4652 1.42883 55.3412 0.873249C56.217 0.317667 57.3318 0.0791016 58.7651 0.0791016C59.4817 0.0791016 60.1188 0.158361 60.6762 0.237617C61.1539 0.317665 61.7909 0.476176 62.2687 0.634688V2.38069C61.7909 2.22218 61.2335 2.06367 60.6762 1.98441C60.1188 1.90436 59.4817 1.82511 58.9244 1.82511C57.4911 1.82511 56.3762 2.22218 55.7393 3.01553C55.1819 3.80967 54.7838 5.00009 54.7838 6.42828C54.7838 7.77801 55.1022 8.88918 55.8189 9.60327C56.5356 10.3966 57.4911 10.7144 58.9244 10.7144C59.4817 10.7144 60.0391 10.6352 60.5965 10.5559C61.1539 10.4767 61.7114 10.3174 62.1891 10.1588V11.9049C61.7114 12.0634 61.1539 12.1434 60.5965 12.2227C60.0391 12.4604 59.4022 12.4604 58.6854 12.4604Z" fill="black"/>
<path d="M69.5943 12.6191C68.3203 12.6191 67.2851 12.3813 66.4888 11.8257C65.6926 11.2702 65.1351 10.6353 64.8166 9.68268C64.4982 8.73082 64.3389 7.61965 64.3389 6.34918C64.3389 5.0795 64.4982 3.88908 64.8166 2.93643C65.1351 1.98457 65.7722 1.26968 66.4888 0.79335C67.2851 0.317815 68.2406 0 69.5943 0C70.8683 0 71.9035 0.238559 72.6998 0.79335C73.4961 1.26968 73.9738 1.98457 74.2923 2.93643C74.6108 3.88908 74.7701 5.00025 74.7701 6.34918C74.7701 7.6989 74.6108 8.73082 74.2923 9.68268C73.9738 10.6353 73.3368 11.2702 72.6201 11.8257C71.8239 12.3813 70.8683 12.6191 69.5943 12.6191ZM69.5943 10.8731C70.7887 10.8731 71.6646 10.4768 72.0627 9.68268C72.5405 8.88933 72.7794 7.77816 72.7794 6.42843C72.7794 5.00025 72.5405 3.80982 72.0627 3.01568C71.6646 2.22233 70.7887 1.82526 69.5943 1.82526C68.3998 1.82526 67.524 2.22233 67.0462 3.01568C66.6481 3.80982 66.3296 5.00025 66.3296 6.42843C66.3296 7.77816 66.5685 8.88933 67.0462 9.68268C67.524 10.4768 68.3998 10.8731 69.5943 10.8731Z" fill="black"/>
<path d="M77.2373 12.223V0.23877H79.3076L83.1293 7.93688L86.8726 0.23877H88.9427V12.223H86.8726V3.57227L83.6072 10.1592H82.4129L79.1483 3.57227V12.223H77.2373Z" fill="black"/>
<path d="M91.334 12.2228V10.6353H93.0063V12.2228H91.334Z" fill="black"/>
<path d="M100.65 12.4605C99.0568 12.4605 97.7831 12.0634 96.8273 11.2701C95.8715 10.4767 95.4736 9.2863 95.4736 7.85732V0.396973H97.5438V7.85732C97.5438 8.88923 97.7831 9.60332 98.4204 10.0796C98.8975 10.556 99.7733 10.873 100.809 10.873C101.844 10.873 102.561 10.6352 103.118 10.0796C103.596 9.60332 103.994 8.80997 103.994 7.85732V0.396973H106.065V7.85732C106.065 9.36555 105.666 10.4767 104.711 11.2701C103.755 12.0634 102.401 12.4605 100.65 12.4605Z" fill="black"/>
<path d="M107.417 12.223L112.036 0.23877H114.345L118.884 12.223H116.814L115.619 9.1273H110.762L109.567 12.223H107.417ZM111.001 7.61985H115.141L113.071 2.22254L111.001 7.61985Z" fill="black"/>
<path d="M2.3092 26.7466C1.7518 26.7466 1.19441 26.6674 0.875903 26.4296C0.557391 26.191 0.318509 25.874 0.159255 25.3977C0 25.0006 0 24.445 0 23.9695V20.8738C0 20.3182 0.0796275 19.7626 0.159255 19.3655C0.318509 18.9693 0.477764 18.5722 0.875903 18.3344C1.27404 18.0959 1.7518 18.0166 2.3092 18.0166C2.78696 18.0166 3.26472 18.0959 3.58323 18.2544C3.90174 18.4137 4.06099 18.7307 4.29988 19.1278C4.53876 19.5248 4.45913 20.0012 4.45913 20.4767V21.1916H3.34435V20.636C3.34435 20.3182 3.34435 20.0804 3.26472 19.7626C3.26472 19.5248 3.18509 19.3655 3.02584 19.207C2.86659 19.0485 2.70733 19.0485 2.3092 19.0485C1.91105 19.0485 1.7518 19.1278 1.51292 19.2863C1.35366 19.4456 1.27404 19.6041 1.19441 19.8419C1.11478 20.0804 1.11478 20.3974 1.11478 20.7945V24.2073C1.11478 24.6043 1.11478 25.0006 1.19441 25.2392C1.27404 25.477 1.35366 25.6355 1.51292 25.7155C1.67218 25.7948 1.83143 25.874 2.22957 25.874C2.6277 25.874 2.78696 25.7948 2.94621 25.6355C3.10547 25.477 3.18509 25.3184 3.18509 25.0807C3.18509 24.8421 3.26472 24.5251 3.26472 24.128V23.4139H4.37951V24.128C4.37951 24.6043 4.29988 25.1599 4.22025 25.4769C4.14062 25.874 3.90174 26.191 3.5036 26.4296C3.34435 26.6674 2.94621 26.7466 2.3092 26.7466Z" fill="black"/>
<path d="M6.84833 26.6674V18.9693H5.41504V18.0166H9.47604V18.9693H8.04278V26.6674H6.84833Z" fill="black"/>
<path d="M12.8215 26.7465C12.2641 26.7465 11.7863 26.6672 11.4678 26.4294C11.1492 26.1909 10.9104 25.9531 10.6715 25.4768C10.5123 25.0797 10.4326 24.5241 10.4326 24.0486V20.7944C10.4326 20.2388 10.5123 19.7624 10.6715 19.3654C10.8308 18.9691 11.0697 18.6513 11.4678 18.4135C11.7863 18.1749 12.3437 18.0957 12.8215 18.0957C13.3789 18.0957 13.8566 18.1749 14.1751 18.4135C14.4936 18.6513 14.7325 18.8898 14.9714 19.3654C15.1307 19.7624 15.2102 20.2388 15.2102 20.7944V24.1279C15.2102 24.6834 15.1307 25.1598 14.9714 25.556C14.8121 25.9531 14.5733 26.3502 14.1751 26.5087C13.8566 26.6672 13.4584 26.7465 12.8215 26.7465ZM12.8215 25.8739C13.1399 25.8739 13.3789 25.7946 13.6177 25.7153C13.777 25.556 13.8566 25.3975 13.9362 25.1598C14.0158 24.9212 14.0158 24.6834 14.0158 24.2864V20.4765C14.0158 20.1595 14.0158 19.921 13.9362 19.6039C13.8566 19.3654 13.777 19.2069 13.6177 19.1276C13.4584 19.0483 13.2196 18.9691 12.8215 18.9691C12.5029 18.9691 12.2641 19.0483 12.0252 19.1276C11.8659 19.2069 11.7863 19.4454 11.7067 19.6039C11.627 19.8417 11.627 20.0803 11.627 20.4765V24.2071C11.627 24.5241 11.627 24.7627 11.7067 25.0797C11.7863 25.3183 11.8659 25.4768 12.0252 25.6353C12.2641 25.7946 12.5029 25.8739 12.8215 25.8739Z" fill="black"/>
<path d="M16.6416 26.6672L16.8008 18.0957H17.9953L19.5082 25.0797L21.0211 18.0957H22.2155L22.3747 26.6672H21.4192L21.3396 20.3973L19.9063 26.6672H19.2693L17.836 20.3973L17.7563 26.6672H16.6416Z" fill="black"/>
<path d="M23.4912 26.6672L25.4023 18.0957H26.5967L28.5077 26.6672H27.393L26.9948 24.4449H25.243L24.8449 26.6672H23.4912ZM25.1634 23.6515H26.5967L25.8004 19.7624L25.1634 23.6515Z" fill="black"/>
<path d="M30.0983 26.6674V18.9693H28.665V18.0166H32.726V18.9693H31.2928V26.6674H30.0983Z" fill="black"/>
<path d="M36.0715 26.7465C35.5141 26.7465 35.0363 26.6672 34.7178 26.4294C34.3993 26.1909 34.1604 25.9531 33.9215 25.4768C33.7623 25.0797 33.6826 24.5241 33.6826 24.0486V20.7944C33.6826 20.2388 33.7623 19.7624 33.9215 19.3654C34.0808 18.9691 34.3197 18.6513 34.7178 18.4135C35.0363 18.1749 35.5937 18.0957 36.0715 18.0957C36.5492 18.0957 37.1066 18.1749 37.4252 18.4135C37.7436 18.6513 37.9825 18.8898 38.2214 19.3654C38.3807 19.7624 38.4603 20.2388 38.4603 20.7944V24.1279C38.4603 24.6834 38.3807 25.1598 38.2214 25.556C38.0621 25.9531 37.8233 26.3502 37.4252 26.5087C37.1066 26.6672 36.6289 26.7465 36.0715 26.7465ZM36.0715 25.8739C36.39 25.8739 36.6289 25.7946 36.8677 25.7153C37.027 25.556 37.1066 25.3975 37.1863 25.1598C37.2658 24.9212 37.2659 24.6834 37.2659 24.2864V20.4765C37.2659 20.1595 37.2658 19.921 37.1863 19.6039C37.1066 19.3654 37.027 19.2069 36.8677 19.1276C36.7084 19.0483 36.4696 18.9691 36.0715 18.9691C35.7529 18.9691 35.5141 19.0483 35.2752 19.1276C35.116 19.2069 35.0363 19.4454 34.9567 19.6039C34.8771 19.8417 34.8771 20.0803 34.8771 20.4765V24.2071C34.8771 24.5241 34.8771 24.7627 34.9567 25.0797C35.0363 25.3975 35.116 25.4768 35.2752 25.6353C35.5141 25.7946 35.7529 25.8739 36.0715 25.8739Z" fill="black"/>
<path d="M39.2549 26.6672V25.7153H39.6531C39.8123 25.7153 39.8919 25.6353 39.9715 25.556C40.0512 25.4768 40.1308 25.3183 40.2105 25.0797C40.29 24.8419 40.3697 24.6042 40.3697 24.1279C40.4493 23.7308 40.4493 23.2545 40.5289 22.6989L40.7678 18.0957H44.5899V26.6672H43.3955V18.9691H41.8826L41.7234 22.6196C41.7234 23.1752 41.6437 23.6515 41.5641 24.1279C41.4845 24.5241 41.4049 25.0005 41.3252 25.3183C41.2456 25.6353 41.0863 25.8739 40.9271 26.1909C40.7678 26.4294 40.5289 26.5087 40.2105 26.588C39.8919 26.6672 39.5734 26.6672 39.2549 26.6672Z" fill="black"/>
<path d="M48.4933 26.7465C47.9359 26.7465 47.4581 26.6672 47.1397 26.4294C46.8211 26.1909 46.5822 25.9531 46.3434 25.4768C46.1841 25.0797 46.1045 24.5241 46.1045 24.0486V20.7944C46.1045 20.2388 46.1841 19.7624 46.3434 19.3654C46.5026 18.9691 46.7415 18.6513 47.1397 18.4135C47.5378 18.1749 48.0155 18.0957 48.4933 18.0957C49.0507 18.0957 49.5284 18.1749 49.8469 18.4135C50.1655 18.6513 50.4044 18.8898 50.6432 19.3654C50.8025 19.7624 50.8821 20.2388 50.8821 20.7944V24.1279C50.8821 24.6834 50.8025 25.1598 50.6432 25.556C50.484 25.9531 50.2451 26.3502 49.8469 26.5087C49.5284 26.6672 49.1303 26.7465 48.4933 26.7465ZM48.4933 25.8739C48.8118 25.8739 49.0507 25.7946 49.2895 25.7153C49.4488 25.556 49.5284 25.3975 49.6081 25.1598C49.6877 24.9212 49.6877 24.6834 49.6877 24.2864V20.4765C49.6877 20.1595 49.6877 19.921 49.6081 19.6039C49.5284 19.3654 49.4488 19.2069 49.2895 19.1276C49.1303 19.0483 48.8914 18.9691 48.4933 18.9691C48.0952 18.9691 47.9359 19.0483 47.6971 19.1276C47.5378 19.2069 47.4581 19.4454 47.3785 19.6039C47.2989 19.8417 47.2989 20.0803 47.2989 20.4765V24.2071C47.2989 24.5241 47.2989 24.7627 47.3785 25.0797C47.4581 25.3975 47.5378 25.4768 47.6971 25.6353C47.9359 25.7946 48.1748 25.8739 48.4933 25.8739Z" fill="black"/>
<path d="M52.3154 26.6672V18.0957H55.6598V19.0484H53.5895V26.7465L52.3154 26.6672Z" fill="black"/>
<path d="M56.7734 26.6672V18.0957H57.9678V26.6672H56.7734Z" fill="black"/>
<path d="M62.9059 26.6674V22.699C62.4282 22.7783 62.03 22.8583 61.6319 22.8583C61.1541 22.8583 60.6764 22.7783 60.4375 22.6198C60.119 22.4613 59.8801 22.3028 59.6412 21.9057C59.4819 21.6671 59.4023 21.1916 59.4023 20.7945V18.0166H60.5967V20.7945C60.5967 21.0323 60.5967 21.2708 60.6764 21.5086C60.756 21.7472 60.8356 21.8264 60.9948 21.9057C61.1541 21.9849 61.393 22.0642 61.7115 22.0642H62.1893C62.3485 22.0642 62.5078 21.9849 62.667 21.9849V18.0959H63.8614V26.6674H62.9059Z" fill="black"/>
<path d="M65.6924 26.6672V18.0957H66.8868V21.8263H69.1164V18.0957H70.3108V26.6672H69.1164V22.6989H66.8868V26.6672H65.6924Z" fill="black"/>
<path d="M72.0635 26.6672V18.0957H73.2579V26.6672H72.0635Z" fill="black"/>
<path d="M77.5566 26.6672V18.0957H82.3344V26.6672H81.14V18.9691H78.751V26.6672H77.5566Z" fill="black"/>
<path d="M83.9277 26.6672V18.0957H86.0779C86.5559 18.0957 87.033 18.175 87.3516 18.3343C87.6702 18.4928 87.8295 18.7305 88.0689 19.2069C88.2274 19.5247 88.2274 20.0002 88.2274 20.4765C88.2274 20.8736 88.1481 21.3499 87.9888 21.667C87.8295 21.9848 87.5909 22.2225 87.2723 22.4611C86.9537 22.6196 86.5559 22.6989 86.0779 22.6989H85.1221V26.6672H83.9277ZM85.1221 21.8263H85.6793C85.9979 21.8263 86.2372 21.8263 86.5559 21.747C86.7152 21.667 86.8745 21.5084 86.9537 21.3499C87.033 21.1914 87.033 20.8736 87.033 20.4765C87.033 20.0803 87.033 19.6832 86.9537 19.5247C86.8745 19.2861 86.7944 19.2069 86.6351 19.1276C86.4758 19.0483 86.1572 19.0484 85.6793 19.0484H85.1221V21.8263Z" fill="black"/>
<path d="M89.3408 26.6672V18.0957H90.3759V24.0486L92.924 18.0957H93.7997V26.6672H92.7647V20.6358L90.2966 26.6672H89.3408Z" fill="black"/>
<path d="M94.7559 26.6672V25.7153H95.1537C95.313 25.7153 95.3931 25.6353 95.4723 25.556C95.5524 25.4768 95.6316 25.3183 95.7117 25.0797C95.7909 24.8419 95.8702 24.6042 95.8702 24.1279C95.9502 23.7308 95.9502 23.2545 96.0295 22.6989L96.2689 18.0957H100.091V26.6672H98.8962V18.9691H97.3832L97.2239 22.6196C97.2239 23.1752 97.1446 23.6515 97.0654 24.1279C96.9853 24.5241 96.9061 25.0005 96.826 25.3183C96.7468 25.6353 96.5875 25.8739 96.4282 26.1909C96.2689 26.5087 96.0295 26.5087 95.7117 26.588C95.5524 26.6672 95.2338 26.6672 94.7559 26.6672Z" fill="black"/>
<path d="M101.443 26.6672L103.355 18.0957H104.549L106.46 26.6672H105.266L104.867 24.4449H103.116L102.718 26.6672H101.443ZM103.116 23.6515H104.549L103.753 19.7624L103.116 23.6515Z" fill="black"/>
<path d="M106.858 28.2549V25.7948H107.257C107.336 25.7155 107.496 25.5562 107.575 25.4769C107.655 25.3184 107.814 25.1599 107.893 24.9214C107.974 24.6836 108.053 24.445 108.133 23.9695C108.212 23.6517 108.292 23.0961 108.371 22.6198C108.451 22.0642 108.451 21.4294 108.531 20.5567L108.69 18.0166H112.273V25.7155H113.149V28.1756H112.114L112.035 26.6674H107.814L107.734 28.1756L106.858 28.2549ZM108.292 25.874H111.079V18.9693H109.725L109.646 20.953C109.646 21.7472 109.566 22.382 109.487 22.9376C109.406 23.4139 109.327 23.8895 109.327 24.2073C109.247 24.5251 109.168 24.7628 109.088 25.0807C109.009 25.2392 108.929 25.3977 108.769 25.5562C108.611 25.7155 108.531 25.7948 108.292 25.874Z" fill="black"/>
<path d="M114.345 26.6672V18.0957H115.38V24.0486L117.928 18.0957H118.804V26.6672H117.769V20.6358L115.301 26.6672H114.345Z" fill="black"/>
</svg>
