<svg width="26" height="26" viewBox="0 0 26 26" fill="none" xmlns="http://www.w3.org/2000/svg">
<path d="M22.1667 9.33333H3.83333C3.3471 9.33333 2.88079 9.52649 2.53697 9.8703C2.19315 10.2141 2 10.6804 2 11.1667V22.1667C2 22.6529 2.19315 23.1192 2.53697 23.463C2.88079 23.8068 3.3471 24 3.83333 24H22.1667C22.6529 24 23.1192 23.8068 23.463 23.463C23.8068 23.1192 24 22.6529 24 22.1667V11.1667C24 10.6804 23.8068 10.2141 23.463 9.8703C23.1192 9.52649 22.6529 9.33333 22.1667 9.33333ZM22.1667 22.1667H3.83333V11.1667H22.1667V22.1667ZM3.83333 6.58333C3.83333 6.34022 3.92991 6.10706 4.10182 5.93515C4.27373 5.76324 4.50688 5.66667 4.75 5.66667H21.25C21.4931 5.66667 21.7263 5.76324 21.8982 5.93515C22.0701 6.10706 22.1667 6.34022 22.1667 6.58333C22.1667 6.82645 22.0701 7.05961 21.8982 7.23151C21.7263 7.40342 21.4931 7.5 21.25 7.5H4.75C4.50688 7.5 4.27373 7.40342 4.10182 7.23151C3.92991 7.05961 3.83333 6.82645 3.83333 6.58333ZM5.66667 2.91667C5.66667 2.67355 5.76324 2.44039 5.93515 2.26849C6.10706 2.09658 6.34022 2 6.58333 2H19.4167C19.6598 2 19.8929 2.09658 20.0648 2.26849C20.2368 2.44039 20.3333 2.67355 20.3333 2.91667C20.3333 3.15978 20.2368 3.39294 20.0648 3.56485C19.8929 3.73676 19.6598 3.83333 19.4167 3.83333H6.58333C6.34022 3.83333 6.10706 3.73676 5.93515 3.56485C5.76324 3.39294 5.66667 3.15978 5.66667 2.91667Z" fill="#0E4E81"/>
</svg>
