<svg width="26" height="26" viewBox="0 0 26 26" fill="none" xmlns="http://www.w3.org/2000/svg">
<path d="M17.3333 18.4168H8.66667M3.25 12.9893V15.7085C3.25 19.2835 3.25 21.071 4.36042 22.1814C5.47083 23.2918 7.25833 23.2918 10.8333 23.2918H15.1667C18.7417 23.2918 20.5292 23.2918 21.6396 22.1814C22.75 21.071 22.75 19.2835 22.75 15.7085V12.9893C22.75 11.1672 22.75 10.2572 22.3643 9.4685C21.9787 8.67983 21.2593 8.12083 19.8228 7.00283L17.6562 5.31825C15.4191 3.57841 14.3 2.7085 13 2.7085C11.7 2.7085 10.5809 3.57841 8.34383 5.31825L6.17717 7.00283C4.73958 8.12083 4.02133 8.67983 3.63567 9.4685C3.25 10.2572 3.25 11.1672 3.25 12.9893Z" stroke="#0E4E81" stroke-width="2" stroke-linecap="round" stroke-linejoin="round"/>
</svg>
