<svg width="26" height="26" viewBox="0 0 26 26" fill="none" xmlns="http://www.w3.org/2000/svg">
<path fill-rule="evenodd" clip-rule="evenodd" d="M13 1.00032C10.9594 1.00032 9.27275 1.18004 7.97451 1.39882L7.82493 1.4245C6.69749 1.61315 5.75981 1.77054 5.02642 2.67248C4.55758 3.25182 4.40465 3.87805 4.37005 4.57571L3.82084 4.75878C3.304 4.93069 2.84967 5.0825 2.49135 5.24994C2.10288 5.43077 1.74679 5.66295 1.47442 6.04137C1.20205 6.41978 1.09377 6.83057 1.04465 7.25586C1 7.6499 1 8.12655 1 8.6724V8.83426C1 9.283 1 9.67927 1.03349 10.0108C1.06921 10.3691 1.14847 10.7185 1.34605 11.0556C1.54586 11.3939 1.81153 11.6327 2.10847 11.8381C2.38195 12.0279 2.728 12.221 3.12093 12.4387L6.06791 14.0762C6.6707 15.2606 7.49786 16.3166 8.63535 17.079C9.62549 17.7443 10.8143 18.1618 12.222 18.2723C12.1841 18.371 12.164 18.4757 12.1628 18.5815V20.5349H10.5665C10.1149 20.535 9.67721 20.6915 9.32797 20.9778C8.97873 21.2642 8.7395 21.6627 8.65098 22.1055L8.40651 23.3256H6.30233C6.08028 23.3256 5.86734 23.4138 5.71033 23.5708C5.55332 23.7278 5.46512 23.9408 5.46512 24.1628C5.46512 24.3848 5.55332 24.5978 5.71033 24.7548C5.86734 24.9118 6.08028 25 6.30233 25H19.6977C19.9197 25 20.1327 24.9118 20.2897 24.7548C20.4467 24.5978 20.5349 24.3848 20.5349 24.1628C20.5349 23.9408 20.4467 23.7278 20.2897 23.5708C20.1327 23.4138 19.9197 23.3256 19.6977 23.3256H17.5935L17.349 22.1055C17.2605 21.6627 17.0213 21.2642 16.672 20.9778C16.3228 20.6915 15.8851 20.535 15.4335 20.5349H13.8372V18.5815C13.836 18.4757 13.8159 18.371 13.778 18.2723C15.1857 18.1606 16.3745 17.7443 17.3647 17.0801C18.5033 16.3166 19.3293 15.2606 19.9321 14.0762L22.8791 12.4387C23.272 12.221 23.618 12.0279 23.8915 11.8381C24.1873 11.6327 24.4541 11.3939 24.6528 11.0567C24.8515 10.7185 24.9319 10.3691 24.9665 10.0108C25 9.67927 25 9.283 25 8.83426V8.6724C25 8.12767 25 7.6499 24.9553 7.25586C24.9062 6.83057 24.7991 6.41866 24.5256 6.04137C24.2532 5.66295 23.8971 5.43077 23.5098 5.24882C23.1492 5.08138 22.696 4.93069 22.1792 4.75878L21.63 4.57571C21.5965 3.87693 21.4435 3.25182 20.9736 2.67248C20.2413 1.76942 19.3036 1.61203 18.1762 1.4245L18.0255 1.39882C16.3644 1.12588 14.6834 0.99258 13 1.00032ZM15.8856 23.3256L15.707 22.4337C15.6943 22.3705 15.6602 22.3136 15.6103 22.2727C15.5605 22.2318 15.498 22.2094 15.4335 22.2093H10.5665C10.502 22.2094 10.4395 22.2318 10.3897 22.2727C10.3398 22.3136 10.3057 22.3705 10.293 22.4337L10.1144 23.3256H15.8856ZM4.39126 6.33383L4.40688 6.32825C4.48726 8.02497 4.67814 9.90029 5.15591 11.6528L3.96595 10.9931C3.53172 10.7509 3.25935 10.5991 3.06288 10.4629C2.88205 10.3368 2.82288 10.262 2.79051 10.2061C2.75702 10.1503 2.7213 10.0633 2.69898 9.84448C2.6759 9.49597 2.66771 9.14663 2.67442 8.79742V8.71594C2.67442 8.11427 2.67553 7.73362 2.70791 7.44563C2.73916 7.17996 2.78828 7.08061 2.83293 7.02033C2.87647 6.95894 2.9546 6.8808 3.19684 6.76806C3.46028 6.64527 3.82195 6.52471 4.39126 6.33383ZM21.5931 6.32713C21.5139 8.02385 21.3219 9.89918 20.8452 11.6517L22.034 10.992C22.4683 10.7498 22.7407 10.598 22.9371 10.4618C23.118 10.3356 23.1771 10.2608 23.2095 10.205C23.243 10.1492 23.2787 10.0622 23.301 9.84336C23.3245 9.60448 23.3256 9.29305 23.3256 8.79631V8.71482C23.3256 8.11315 23.3245 7.73251 23.2921 7.44451C23.2608 7.17884 23.2117 7.07949 23.1671 7.01922C23.1235 6.95782 23.0454 6.87968 22.8032 6.76694C22.5397 6.64415 22.178 6.52248 21.6087 6.3316L21.5931 6.32713ZM8.25358 3.04978C9.82253 2.79295 11.4102 2.66749 13 2.67471C14.9423 2.67471 16.5353 2.8455 17.7464 3.04978C19.0938 3.2775 19.3762 3.36233 19.6742 3.72847C19.9667 4.08791 19.9946 4.42948 19.9343 5.94202C19.8339 8.46254 19.5012 11.184 18.472 13.2536C17.963 14.2738 17.2977 15.1088 16.4326 15.6892C15.5719 16.2663 14.4612 16.628 13 16.628C11.5388 16.628 10.4292 16.2663 9.56856 15.6892C8.70233 15.1088 8.03702 14.2738 7.52912 13.2524C6.49879 11.184 6.16726 8.46366 6.06679 5.9409C6.00651 4.42948 6.0333 4.08791 6.32688 3.72847C6.62381 3.36233 6.90623 3.2775 8.25358 3.04978Z" fill="#0E4E81"/>
</svg>
