<svg width="26" height="26" viewBox="0 0 26 26" fill="none" xmlns="http://www.w3.org/2000/svg">
<path d="M4 13.483H9.4V15.083H4V13.483ZM4 10.283H13V11.883H4V10.283ZM4 7.08301H13V8.68301H4V7.08301Z" fill="#3C3C3C"/>
<path d="M11.2857 22.333H2.71429V4.83301H23.2857V13.583H25V4.83301C25 4.36888 24.8194 3.92376 24.4979 3.59557C24.1764 3.26738 23.7404 3.08301 23.2857 3.08301H2.71429C2.25963 3.08301 1.82359 3.26738 1.5021 3.59557C1.18061 3.92376 1 4.36888 1 4.83301V22.333C1 22.7971 1.18061 23.2423 1.5021 23.5704C1.82359 23.8986 2.25963 24.083 2.71429 24.083H11.2857V22.333Z" fill="#3C3C3C"/>
<path d="M18.3333 21.6856L16.175 19.4836L15 20.6824L18.3333 24.083L25 17.2817L23.825 16.083L18.3333 21.6856Z" fill="#3C3C3C"/>
</svg>
