<svg width="26" height="26" viewBox="0 0 26 26" fill="none" xmlns="http://www.w3.org/2000/svg">
<path d="M17.3333 18.4167H8.66667M3.25 12.9892V15.7084C3.25 19.2834 3.25 21.0709 4.36042 22.1813C5.47083 23.2917 7.25833 23.2917 10.8333 23.2917H15.1667C18.7417 23.2917 20.5292 23.2917 21.6396 22.1813C22.75 21.0709 22.75 19.2834 22.75 15.7084V12.9892C22.75 11.167 22.75 10.257 22.3643 9.46837C21.9787 8.67971 21.2593 8.12071 19.8228 7.00271L17.6562 5.31812C15.4191 3.57829 14.3 2.70837 13 2.70837C11.7 2.70837 10.5809 3.57829 8.34383 5.31812L6.17717 7.00271C4.73958 8.12071 4.02133 8.67971 3.63567 9.46837C3.25 10.257 3.25 11.167 3.25 12.9892Z" stroke="#3C3C3C" stroke-width="2" stroke-linecap="round" stroke-linejoin="round"/>
</svg>
