<svg width="26" height="26" viewBox="0 0 26 26" fill="none" xmlns="http://www.w3.org/2000/svg">
<g clip-path="url(#clip0_4301_424)">
<path d="M18.75 0H10.1562C9.29336 0 8.59375 0.699609 8.59375 1.5625H17.1875V7.8125H23.4375V20.3125H17.9688V21.875H23.4375C24.3004 21.875 25 21.1754 25 20.3125V6.25039L18.75 0ZM18.75 6.25V2.20938L22.7898 6.25H18.75ZM1.5625 3.125C0.699609 3.125 0 3.82461 0 4.6875V23.4375C0 24.3004 0.699609 25 1.5625 25H14.8438C15.7066 25 16.4062 24.3004 16.4062 23.4375V9.37539L10.1562 3.125H1.5625ZM14.8438 23.4375H1.5625V4.6875H8.59375V10.9375H14.8438V23.4375ZM10.1562 9.375V5.33437L14.1961 9.375H10.1562Z" fill="#3C3C3C"/>
</g>
<defs>
<clipPath id="clip0_4301_424">
<rect width="26" height="26" fill="white"/>
</clipPath>
</defs>
</svg>
