<svg width="24" height="24" viewBox="0 0 24 24" fill="none" xmlns="http://www.w3.org/2000/svg">
<path d="M20 12.1429C20 12.6951 19.5523 13.1429 19 13.1429H14.1429C13.5906 13.1429 13.1429 13.5906 13.1429 14.1429V19C13.1429 19.5523 12.6951 20 12.1429 20H11.8571C11.3049 20 10.8571 19.5523 10.8571 19V14.1429C10.8571 13.5906 10.4094 13.1429 9.85714 13.1429H5C4.44771 13.1429 4 12.6951 4 12.1429V11.8571C4 11.3049 4.44772 10.8571 5 10.8571H9.85714C10.4094 10.8571 10.8571 10.4094 10.8571 9.85714V5C10.8571 4.44771 11.3049 4 11.8571 4H12.1429C12.6951 4 13.1429 4.44772 13.1429 5V9.85714C13.1429 10.4094 13.5906 10.8571 14.1429 10.8571H19C19.5523 10.8571 20 11.3049 20 11.8571V12.1429Z" fill="white"/>
</svg>
