<svg width="28" height="23" viewBox="0 0 28 23" fill="none" xmlns="http://www.w3.org/2000/svg">
<path d="M25.1524 0.202586C25.1524 0.202586 27.6961 -0.790706 27.4841 1.62158C27.4135 2.61488 26.7776 6.0914 26.2829 9.85175L24.5872 20.9908C24.5872 20.9908 24.4459 22.6227 23.1741 22.9065C21.9022 23.1902 19.9945 21.9132 19.6412 21.6294C19.3586 21.4165 14.342 18.2238 12.5755 16.6629C12.0809 16.2372 11.5157 15.3858 12.6462 14.3925L20.0652 7.29758C20.913 6.44617 21.7609 4.45958 18.2281 6.87187L8.33614 13.6121C8.33614 13.6121 7.20563 14.3216 5.08597 13.683L0.493251 12.264C0.493251 12.264 -1.20251 11.1998 1.69442 10.1355C8.76011 6.80087 17.4509 3.39529 25.1524 0.202586Z" fill="#47C0F3"/>
</svg>
