<svg width="48" height="48" viewBox="0 0 48 48" fill="none" xmlns="http://www.w3.org/2000/svg">
<circle cx="24" cy="24" r="24" fill="#30ABE0"/>
<g clip-path="url(#clip0_4301_356)">
<path d="M24.0005 24.0001C25.2312 24.0001 26.4342 23.6352 27.4574 22.9515C28.4807 22.2678 29.2782 21.296 29.7491 20.159C30.2201 19.0221 30.3433 17.771 30.1032 16.564C29.8631 15.357 29.2705 14.2483 28.4003 13.3781C27.5301 12.5079 26.4214 11.9153 25.2144 11.6752C24.0074 11.4351 22.7564 11.5584 21.6194 12.0293C20.4824 12.5003 19.5107 13.2978 18.827 14.321C18.1432 15.3442 17.7783 16.5472 17.7783 17.7779C17.78 19.4276 18.4361 21.0093 19.6026 22.1758C20.7691 23.3424 22.3508 23.9985 24.0005 24.0001ZM24.0005 13.6297C24.821 13.6297 25.623 13.873 26.3051 14.3288C26.9873 14.7846 27.519 15.4325 27.8329 16.1905C28.1469 16.9484 28.229 17.7825 28.069 18.5872C27.9089 19.3918 27.5139 20.1309 26.9337 20.7111C26.3536 21.2912 25.6145 21.6863 24.8098 21.8463C24.0051 22.0064 23.1711 21.9242 22.4131 21.6103C21.6551 21.2963 21.0073 20.7646 20.5515 20.0825C20.0957 19.4003 19.8524 18.5983 19.8524 17.7779C19.8524 16.6777 20.2894 15.6226 21.0674 14.8447C21.8453 14.0668 22.9004 13.6297 24.0005 13.6297Z" fill="white"/>
<path d="M24.0003 26.0747C21.5258 26.0775 19.1534 27.0617 17.4037 28.8114C15.6539 30.5612 14.6697 32.9335 14.667 35.408C14.667 35.6831 14.7763 35.9469 14.9707 36.1413C15.1652 36.3358 15.429 36.4451 15.704 36.4451C15.9791 36.4451 16.2428 36.3358 16.4373 36.1413C16.6318 35.9469 16.7411 35.6831 16.7411 35.408C16.7411 33.4828 17.5059 31.6363 18.8673 30.275C20.2286 28.9136 22.0751 28.1488 24.0003 28.1488C25.9256 28.1488 27.772 28.9136 29.1334 30.275C30.4948 31.6363 31.2596 33.4828 31.2596 35.408C31.2596 35.6831 31.3688 35.9469 31.5633 36.1413C31.7578 36.3358 32.0216 36.4451 32.2966 36.4451C32.5717 36.4451 32.8354 36.3358 33.0299 36.1413C33.2244 35.9469 33.3337 35.6831 33.3337 35.408C33.3309 32.9335 32.3467 30.5612 30.597 28.8114C28.8472 27.0617 26.4748 26.0775 24.0003 26.0747Z" fill="white"/>
</g>
<defs>
<clipPath id="clip0_4301_356">
<rect width="24.8889" height="24.8889" fill="white" transform="translate(11.5557 11.5557)"/>
</clipPath>
</defs>
</svg>
