<svg width="106" height="35" viewBox="0 0 106 35" fill="none" xmlns="http://www.w3.org/2000/svg">
<path d="M54.8207 10.9432C54.7602 15.7113 59.07 18.3723 62.3166 19.9543C65.6524 21.5776 66.7728 22.6184 66.7601 24.0699C66.7346 26.2916 64.0991 27.272 61.6323 27.3102C57.3289 27.377 54.827 26.1484 52.8377 25.2189L51.2876 32.473C53.2833 33.3929 56.9787 34.195 60.8111 34.23C69.8062 34.23 75.6916 29.7897 75.7234 22.9049C75.7584 14.1676 63.6376 13.6838 63.7203 9.77824C63.749 8.59416 64.8789 7.33051 67.3553 7.00903C68.5807 6.8467 71.9643 6.72256 75.7998 8.48912L77.3053 1.47063C75.2428 0.71944 72.5913 8.39233e-05 69.2906 8.39233e-05C60.8238 8.39233e-05 54.8684 4.50084 54.8207 10.9432ZM91.772 0.604855C90.1296 0.604855 88.745 1.56293 88.1275 3.03348L75.2778 33.7143H84.2665L86.0554 28.7711H97.0399L98.0775 33.7143H106L99.0865 0.604855H91.772ZM93.0293 9.54906L95.6234 21.9818H88.519L93.0293 9.54906ZM43.9221 0.604855L36.8368 33.7143H45.4022L52.4844 0.604855H43.9221ZM31.2506 0.604855L22.3351 23.1404L18.7287 3.97882C18.3054 1.83986 16.6343 0.604855 14.7786 0.604855H0.203711L0 1.56612C2.99201 2.21545 6.39145 3.26265 8.45084 4.38307C9.71131 5.06741 10.071 5.66581 10.4848 7.29232L17.3155 33.7143H26.3679L40.2458 0.604855H31.2506Z" fill="url(#paint0_linear_0_1520)"/>
<defs>
<linearGradient id="paint0_linear_0_1520" x1="4873.26" y1="102.901" x2="4972.34" y2="-3412.56" gradientUnits="userSpaceOnUse">
<stop stop-color="#0453CA"/>
<stop offset="1" stop-color="#00111E"/>
</linearGradient>
</defs>
</svg>
