<svg width="30" height="22" viewBox="0 0 30 22" fill="none" xmlns="http://www.w3.org/2000/svg">
<path d="M25.7116 0.440773C25.7116 0.440773 22.1791 0 14.5927 0C7.25246 0 3.55771 0.440773 3.55771 0.440773C2.61403 0.441123 1.70911 0.813202 1.04195 1.47519C0.374787 2.13719 1.82864e-07 3.03489 2.48804e-07 3.97091V17.2126C-0.000174505 17.6762 0.0917097 18.1352 0.270407 18.5636C0.449104 18.992 0.711114 19.3812 1.04148 19.7091C1.37184 20.0371 1.76409 20.2972 2.19583 20.4748C2.62756 20.6524 3.09033 20.7439 3.55771 20.744C3.55771 20.744 6.99302 21.1822 14.5927 21.1822C22.1885 21.1822 25.7116 20.744 25.7116 20.744C26.1792 20.7444 26.6422 20.6533 27.0743 20.4759C27.5063 20.2985 27.8989 20.0384 28.2295 19.7104C28.56 19.3824 28.8221 18.9929 29.0008 18.5643C29.1795 18.1357 29.2711 17.6764 29.2706 17.2126V3.96827C29.2706 3.50481 29.1785 3.0459 28.9997 2.61775C28.8208 2.1896 28.5586 1.80061 28.228 1.47302C27.8975 1.14543 27.5052 0.885649 27.0734 0.70853C26.6416 0.531412 26.1788 0.440426 25.7116 0.440773ZM10.725 15.8361V5.3513L20.2167 10.5904L10.725 15.8361Z" fill="#47C0F3"/>
</svg>
